<?xml version="1.0" encoding="UTF-8"?>
<svg width="7px" height="10px" viewBox="0 0 7 10" version="1.1" xmlns="http://www.w3.org/2000/svg" xmlns:xlink="http://www.w3.org/1999/xlink">
    <title>Shape</title>
    <g id="Screens" stroke="none" stroke-width="1" fill="none" fill-rule="evenodd">
        <g id="Profile" transform="translate(-112, -140)" fill="#FD5739" fill-rule="nonzero">
            <g transform="translate(20, 96)" id="Profile-Info">
                <g transform="translate(91, 8)">
                    <path d="M4.5,36 C2.565,36 1,37.565 1,39.5 C1,42.125 4.5,46 4.5,46 C4.5,46 8,42.125 8,39.5 C8,37.565 6.435,36 4.5,36 Z M4.5,40.75 C3.81,40.75 3.25,40.19 3.25,39.5 C3.25,38.81 3.81,38.25 4.5,38.25 C5.19,38.25 5.75,38.81 5.75,39.5 C5.75,40.19 5.19,40.75 4.5,40.75 Z" id="Shape"></path>
                </g>
            </g>
        </g>
    </g>
</svg>